<svg width="61" height="48" viewBox="0 0 61 48" fill="none" xmlns="http://www.w3.org/2000/svg">
<path d="M44.0784 17.1429C44.0784 7.67464 34.2862 0 22.2059 0C10.1255 0 0.333374 7.67464 0.333374 17.1429C0.333374 20.8146 1.81923 24.2089 4.32616 26.9979C2.92127 30.2379 0.598368 32.8029 0.564718 32.8393C0.451489 32.9608 0.375718 33.1135 0.346787 33.2784C0.317855 33.4433 0.337033 33.6133 0.401946 33.7673C0.466859 33.9212 0.574657 34.0524 0.711994 34.1445C0.849332 34.2367 1.01018 34.2858 1.17462 34.2857C5.02124 34.2857 8.21273 32.9732 10.5051 31.6093C13.8912 33.2957 17.8966 34.2857 22.2059 34.2857C34.2862 34.2857 44.0784 26.6111 44.0784 17.1429ZM20.5234 27.4286V25.6832C19.3362 25.6211 18.1815 25.1989 17.2246 24.4671C16.8145 24.1532 16.7935 23.5275 17.1647 23.1664L18.4003 21.9654C18.6916 21.6825 19.1248 21.6696 19.4655 21.8871C19.8725 22.1464 20.3341 22.2857 20.8136 22.2857H23.7695C24.4531 22.2857 25.0104 21.6514 25.0104 20.8725C25.0104 20.235 24.6308 19.6736 24.0882 19.5086L19.3561 18.0621C17.4013 17.4643 16.0353 15.5529 16.0353 13.4132C16.0353 10.7861 18.0385 8.65179 20.5223 8.58429V6.85714C20.5223 6.38357 20.8988 6 21.3636 6H23.0461C23.5109 6 23.8873 6.38357 23.8873 6.85714V8.6025C25.0745 8.66464 26.2292 9.08571 27.1861 9.81857C27.5962 10.1325 27.6172 10.7582 27.246 11.1193L26.0104 12.3204C25.7191 12.6032 25.2859 12.6161 24.9452 12.3986C24.5382 12.1382 24.0766 12 23.5971 12H20.6411C19.9576 12 19.4003 12.6343 19.4003 13.4132C19.4003 14.0507 19.7799 14.6121 20.3225 14.7771L25.0546 16.2236C27.0094 16.8214 28.3754 18.7329 28.3754 20.8725C28.3754 23.5007 26.3722 25.6339 23.8884 25.7014V27.4286C23.8884 27.9021 23.5119 28.2857 23.0471 28.2857H21.3646C20.8998 28.2857 20.5234 27.9021 20.5234 27.4286ZM56.9085 40.7132C59.4175 37.9243 60.9034 34.5289 60.9034 30.8571C60.9034 23.685 55.2786 17.55 47.3035 14.9925C47.394 15.6996 47.4434 16.4164 47.4434 17.1429C47.4434 28.4861 36.1222 37.7143 22.2059 37.7143C21.0723 37.7143 19.9639 37.6318 18.8693 37.5129C22.1848 43.6746 29.9632 48 39.0309 48C43.3402 48 47.3456 47.01 50.7316 45.3236C53.024 46.6875 56.2155 48 60.0621 48C60.3986 48 60.7025 47.7954 60.834 47.4814C60.9675 47.1664 60.9034 46.8021 60.671 46.5525C60.6384 46.5171 58.3134 43.9554 56.9085 40.7132Z" fill="#00D3D4"/>
</svg>
